<?xml version="1.0" encoding="UTF-8"?>
<!DOCTYPE svg PUBLIC "-//W3C//DTD SVG 1.1//EN" "http://www.w3.org/Graphics/SVG/1.1/DTD/svg11.dtd">
<svg xmlns="http://www.w3.org/2000/svg" version="1.1" width="500px" height="500px" style="shape-rendering:geometricPrecision; text-rendering:geometricPrecision; image-rendering:optimizeQuality; fill-rule:evenodd; clip-rule:evenodd" xmlns:xlink="http://www.w3.org/1999/xlink">
<g><path style="opacity:0.987" fill="#ff786c" d="M 277.5,112.5 C 276.833,113.167 276.167,113.833 275.5,114.5C 253.958,111.244 232.624,112.244 211.5,117.5C 210.127,117.657 208.793,117.49 207.5,117C 208.737,116.768 209.737,116.268 210.5,115.5C 211.568,114.566 212.901,114.232 214.5,114.5C 216.898,114.741 218.898,114.074 220.5,112.5C 239.53,108.53 258.53,108.53 277.5,112.5 Z"/></g>
<g><path style="opacity:0.859" fill="#ff9892" d="M 220.5,112.5 C 218.898,114.074 216.898,114.741 214.5,114.5C 216.102,112.926 218.102,112.259 220.5,112.5 Z"/></g>
<g><path style="opacity:0.998" fill="#ff7468" d="M 277.5,112.5 C 336.603,126.603 372.937,163.27 386.5,222.5C 385.732,221.737 385.232,220.737 385,219.5C 384.51,220.793 384.343,222.127 384.5,223.5C 369.825,165.491 333.491,129.158 275.5,114.5C 276.167,113.833 276.833,113.167 277.5,112.5 Z"/></g>
<g><path style="opacity:0.993" fill="#ff786c" d="M 210.5,115.5 C 209.737,116.268 208.737,116.768 207.5,117C 208.793,117.49 210.127,117.657 211.5,117.5C 153.039,137.965 120.039,178.965 112.5,240.5C 112.665,237.15 112.498,233.817 112,230.5C 111.814,233.036 111.314,235.369 110.5,237.5C 116.647,183.208 144.313,144.374 193.5,121C 199.037,118.654 204.703,116.821 210.5,115.5 Z"/></g>
<g><path style="opacity:1" fill="#ff3734" d="M 314.5,157.5 C 315.035,159.446 316.368,160.446 318.5,160.5C 324.463,164.795 329.796,169.795 334.5,175.5C 334.427,177.027 335.094,178.027 336.5,178.5C 337.5,178.833 338.167,179.5 338.5,180.5C 338.427,182.027 339.094,183.027 340.5,183.5C 340.427,185.027 341.094,186.027 342.5,186.5C 342.427,188.027 343.094,189.027 344.5,189.5C 344.427,191.027 345.094,192.027 346.5,192.5C 351.176,199.525 354.509,207.192 356.5,215.5C 356.41,218.152 357.076,220.485 358.5,222.5C 368.452,269.807 354.785,308.974 317.5,340C 282.941,363.632 245.941,368.298 206.5,354C 201.466,351.953 196.8,349.453 192.5,346.5C 192.027,345.094 191.027,344.427 189.5,344.5C 189.027,343.094 188.027,342.427 186.5,342.5C 186.027,341.094 185.027,340.427 183.5,340.5C 183.027,339.094 182.027,338.427 180.5,338.5C 146.877,311.161 132.711,275.828 138,232.5C 138.311,228.91 139.144,225.577 140.5,222.5C 141.924,220.485 142.59,218.152 142.5,215.5C 144.491,207.192 147.824,199.525 152.5,192.5C 153.906,192.027 154.573,191.027 154.5,189.5C 155.906,189.027 156.573,188.027 156.5,186.5C 157.906,186.027 158.573,185.027 158.5,183.5C 159.906,183.027 160.573,182.027 160.5,180.5C 160.833,179.5 161.5,178.833 162.5,178.5C 163.906,178.027 164.573,177.027 164.5,175.5C 166.167,173.167 168.167,171.167 170.5,169.5C 173.427,168.243 175.761,166.243 177.5,163.5C 180.089,162.581 182.089,160.914 183.5,158.5C 185.027,158.573 186.027,157.906 186.5,156.5C 186.973,155.094 187.973,154.427 189.5,154.5C 191.027,154.573 192.027,153.906 192.5,152.5C 193.514,151.326 194.847,150.66 196.5,150.5C 198.027,150.573 199.027,149.906 199.5,148.5C 204.105,145.738 209.105,143.738 214.5,142.5C 217.152,142.59 219.485,141.924 221.5,140.5C 255.17,132.276 286.17,137.943 314.5,157.5 Z M 173.5,197.5 C 175.806,197.993 178.139,198.326 180.5,198.5C 180.973,199.906 181.973,200.573 183.5,200.5C 183.712,202.384 184.712,203.717 186.5,204.5C 187.919,203.995 188.585,202.995 188.5,201.5C 189.872,200.488 191.205,199.488 192.5,198.5C 195.833,197.167 199.167,197.167 202.5,198.5C 202.5,199.5 202.5,200.5 202.5,201.5C 200.738,202.262 199.738,203.596 199.5,205.5C 198.662,205.842 198.328,206.508 198.5,207.5C 196.914,209.081 195.914,211.081 195.5,213.5C 196.035,215.261 197.035,216.594 198.5,217.5C 202.659,227.151 207.325,236.484 212.5,245.5C 212.421,246.93 212.754,248.264 213.5,249.5C 214.257,250.773 214.923,250.773 215.5,249.5C 217.25,248.341 218.25,246.674 218.5,244.5C 223.659,235.515 228.326,226.182 232.5,216.5C 233.746,213.707 233.413,211.04 231.5,208.5C 231.573,206.973 230.906,205.973 229.5,205.5C 229.573,203.973 228.906,202.973 227.5,202.5C 227.443,201.391 227.11,200.391 226.5,199.5C 227.167,199.5 227.5,199.167 227.5,198.5C 231.263,197.3 234.93,197.634 238.5,199.5C 239.614,200.885 240.614,202.385 241.5,204C 242.437,204.692 243.103,204.525 243.5,203.5C 245.5,202.167 247.167,200.5 248.5,198.5C 251.833,197.167 255.167,197.167 258.5,198.5C 258.649,199.552 258.483,200.552 258,201.5C 254.56,204.38 252.727,208.047 252.5,212.5C 252.5,212.833 252.5,213.167 252.5,213.5C 250.483,222.99 250.65,232.657 253,242.5C 253.949,244.093 255.115,245.426 256.5,246.5C 256.923,247.265 257.257,248.098 257.5,249C 255.799,250.86 254.799,253.027 254.5,255.5C 252.72,256.99 252.054,258.99 252.5,261.5C 252.5,261.833 252.5,262.167 252.5,262.5C 251.344,269.989 251.178,277.655 252,285.5C 252.472,289.11 253.972,292.11 256.5,294.5C 256.5,295.167 256.833,295.5 257.5,295.5C 257.539,296.583 257.873,297.583 258.5,298.5C 255.404,300.791 252.071,301.125 248.5,299.5C 247.5,297.833 246.167,296.5 244.5,295.5C 244.53,294.503 244.03,293.836 243,293.5C 240.858,295.968 238.358,298.135 235.5,300C 233.19,300.497 230.857,300.663 228.5,300.5C 227.833,299.5 227.167,298.5 226.5,297.5C 228.9,295.704 230.567,293.37 231.5,290.5C 232.776,288.438 233.61,286.104 234,283.5C 234.5,270.838 234.667,258.171 234.5,245.5C 231.5,245.167 230.167,246.5 230.5,249.5C 228.896,250.287 228.229,251.62 228.5,253.5C 226.127,255.579 224.794,258.246 224.5,261.5C 223.778,261.918 223.278,262.584 223,263.5C 222.501,267.152 222.335,270.818 222.5,274.5C 221.167,274.5 219.833,274.5 218.5,274.5C 218.167,273.5 217.5,272.833 216.5,272.5C 216.53,271.503 216.03,270.836 215,270.5C 213.225,271.27 211.725,272.437 210.5,274C 209.207,274.49 207.873,274.657 206.5,274.5C 206.5,273.5 206.5,272.5 206.5,271.5C 207.968,266.58 207.301,261.914 204.5,257.5C 204.34,255.847 203.674,254.514 202.5,253.5C 202.573,251.973 201.906,250.973 200.5,250.5C 200.771,248.62 200.104,247.287 198.5,246.5C 198.316,243.827 197.149,243.16 195,244.5C 194.333,256.167 194.333,267.833 195,279.5C 195.388,283.219 196.055,286.886 197,290.5C 197.383,291.056 197.883,291.389 198.5,291.5C 198.427,293.027 199.094,294.027 200.5,294.5C 201.167,296.167 201.833,297.833 202.5,299.5C 199.57,300.299 196.57,300.632 193.5,300.5C 191.858,299.197 190.191,297.864 188.5,296.5C 188.585,295.005 187.919,294.005 186.5,293.5C 183.978,295.856 181.312,298.023 178.5,300C 175.779,300.602 173.113,300.435 170.5,299.5C 170.557,298.391 170.89,297.391 171.5,296.5C 172.906,296.027 173.573,295.027 173.5,293.5C 175.539,292.089 176.539,290.089 176.5,287.5C 177.979,283.091 178.646,278.424 178.5,273.5C 178.646,268.576 177.979,263.909 176.5,259.5C 176.5,259.167 176.5,258.833 176.5,258.5C 176.771,256.62 176.104,255.287 174.5,254.5C 174.262,252.596 173.262,251.262 171.5,250.5C 171.775,248.158 172.608,248.158 174,250.5C 173.981,248.893 173.815,247.226 173.5,245.5C 174.167,245.5 174.5,245.167 174.5,244.5C 175.793,243.158 176.626,241.491 177,239.5C 178.442,231.548 178.775,223.548 178,215.5C 177.61,212.896 176.776,210.562 175.5,208.5C 175.672,207.508 175.338,206.842 174.5,206.5C 174.573,204.973 173.906,203.973 172.5,203.5C 169.746,201.002 170.08,199.002 173.5,197.5 Z M 279.5,198.5 C 280.514,199.674 281.847,200.34 283.5,200.5C 283.833,201.5 284.5,202.167 285.5,202.5C 286.947,203.885 287.947,203.552 288.5,201.5C 289.492,201.672 290.158,201.338 290.5,200.5C 298.027,197.966 305.694,197.299 313.5,198.5C 314.209,199.404 315.209,199.737 316.5,199.5C 317.514,200.674 318.847,201.34 320.5,201.5C 322.142,202.803 323.809,204.136 325.5,205.5C 327.688,210.255 329.188,215.255 330,220.5C 330.785,222.286 331.951,223.786 333.5,225C 331.959,226.579 330.792,228.413 330,230.5C 329.47,242.492 323.97,251.159 313.5,256.5C 309.313,257.213 305.313,258.213 301.5,259.5C 301.167,259.5 300.833,259.5 300.5,259.5C 298.5,259.5 296.5,259.5 294.5,259.5C 294.334,267.174 294.5,274.841 295,282.5C 295.259,286.799 296.759,290.466 299.5,293.5C 299.427,295.027 300.094,296.027 301.5,296.5C 302.471,297.962 302.138,299.295 300.5,300.5C 296.586,300.889 292.92,300.222 289.5,298.5C 288.833,297.167 287.833,296.167 286.5,295.5C 286.53,294.503 286.03,293.836 285,293.5C 282.613,295.746 280.113,297.912 277.5,300C 275.19,300.497 272.857,300.663 270.5,300.5C 269.833,299.5 269.167,298.5 268.5,297.5C 269.5,297.167 270.167,296.5 270.5,295.5C 273.165,293.165 274.498,290.165 274.5,286.5C 276.025,282.272 276.692,277.772 276.5,273C 276.498,269.648 276.165,266.482 275.5,263.5C 275.706,260.505 275.04,257.838 273.5,255.5C 273.262,253.596 272.262,252.262 270.5,251.5C 270.443,250.391 270.11,249.391 269.5,248.5C 270.167,248.5 270.5,248.167 270.5,247.5C 271.906,247.027 272.573,246.027 272.5,244.5C 274.511,242.333 275.678,239.666 276,236.5C 276.667,229.5 276.667,222.5 276,215.5C 275.61,212.896 274.776,210.562 273.5,208.5C 273.672,207.508 273.338,206.842 272.5,206.5C 272.573,204.973 271.906,203.973 270.5,203.5C 270.267,201.938 269.6,200.605 268.5,199.5C 269.167,199.5 269.5,199.167 269.5,198.5C 272.809,197.373 276.143,197.373 279.5,198.5 Z"/></g>
<g><path style="opacity:0.804" fill="#ff9c98" d="M 221.5,140.5 C 219.485,141.924 217.152,142.59 214.5,142.5C 216.515,141.076 218.848,140.41 221.5,140.5 Z"/></g>
<g><path style="opacity:0.792" fill="#ff9c96" d="M 199.5,148.5 C 199.027,149.906 198.027,150.573 196.5,150.5C 196.973,149.094 197.973,148.427 199.5,148.5 Z"/></g>
<g><path style="opacity:0.78" fill="#ff9d98" d="M 192.5,152.5 C 192.027,153.906 191.027,154.573 189.5,154.5C 189.973,153.094 190.973,152.427 192.5,152.5 Z"/></g>
<g><path style="opacity:0.796" fill="#ff9a94" d="M 186.5,156.5 C 186.027,157.906 185.027,158.573 183.5,158.5C 183.973,157.094 184.973,156.427 186.5,156.5 Z"/></g>
<g><path style="opacity:0.945" fill="#ffa399" d="M 314.5,157.5 C 316.23,158.026 317.564,159.026 318.5,160.5C 316.368,160.446 315.035,159.446 314.5,157.5 Z"/></g>
<g><path style="opacity:0.914" fill="#ff8379" d="M 183.5,158.5 C 182.089,160.914 180.089,162.581 177.5,163.5C 178.911,161.086 180.911,159.419 183.5,158.5 Z"/></g>
<g><path style="opacity:0.863" fill="#ff8b82" d="M 177.5,163.5 C 175.761,166.243 173.427,168.243 170.5,169.5C 172.239,166.757 174.573,164.757 177.5,163.5 Z"/></g>
<g><path style="opacity:0.749" fill="#ffa7a2" d="M 164.5,175.5 C 164.573,177.027 163.906,178.027 162.5,178.5C 162.427,176.973 163.094,175.973 164.5,175.5 Z"/></g>
<g><path style="opacity:0.745" fill="#ffa7a2" d="M 334.5,175.5 C 335.906,175.973 336.573,176.973 336.5,178.5C 335.094,178.027 334.427,177.027 334.5,175.5 Z"/></g>
<g><path style="opacity:0.447" fill="#ffb0ac" d="M 160.5,180.5 C 160.573,182.027 159.906,183.027 158.5,183.5C 158.427,181.973 159.094,180.973 160.5,180.5 Z"/></g>
<g><path style="opacity:0.455" fill="#ffb0ad" d="M 338.5,180.5 C 339.906,180.973 340.573,181.973 340.5,183.5C 339.094,183.027 338.427,182.027 338.5,180.5 Z"/></g>
<g><path style="opacity:0.573" fill="#ff9c97" d="M 158.5,183.5 C 158.573,185.027 157.906,186.027 156.5,186.5C 156.427,184.973 157.094,183.973 158.5,183.5 Z"/></g>
<g><path style="opacity:0.58" fill="#ff9f9a" d="M 340.5,183.5 C 341.906,183.973 342.573,184.973 342.5,186.5C 341.094,186.027 340.427,185.027 340.5,183.5 Z"/></g>
<g><path style="opacity:0.541" fill="#ff9e99" d="M 156.5,186.5 C 156.573,188.027 155.906,189.027 154.5,189.5C 154.427,187.973 155.094,186.973 156.5,186.5 Z"/></g>
<g><path style="opacity:0.549" fill="#ff9d99" d="M 342.5,186.5 C 343.906,186.973 344.573,187.973 344.5,189.5C 343.094,189.027 342.427,188.027 342.5,186.5 Z"/></g>
<g><path style="opacity:0.447" fill="#ffa8a4" d="M 154.5,189.5 C 154.573,191.027 153.906,192.027 152.5,192.5C 152.427,190.973 153.094,189.973 154.5,189.5 Z"/></g>
<g><path style="opacity:0.451" fill="#ffaba7" d="M 344.5,189.5 C 345.906,189.973 346.573,190.973 346.5,192.5C 345.094,192.027 344.427,191.027 344.5,189.5 Z"/></g>
<g><path style="opacity:0.38" fill="#fbbdbb" d="M 202.5,198.5 C 199.167,197.167 195.833,197.167 192.5,198.5C 195.833,195.833 199.167,195.833 202.5,198.5 Z"/></g>
<g><path style="opacity:0.341" fill="#fac6c5" d="M 238.5,199.5 C 234.93,197.634 231.263,197.3 227.5,198.5C 228.777,197.102 230.443,196.436 232.5,196.5C 235.102,196.467 237.102,197.467 238.5,199.5 Z"/></g>
<g><path style="opacity:0.359" fill="#fbc3c2" d="M 279.5,198.5 C 276.143,197.373 272.809,197.373 269.5,198.5C 272.833,195.833 276.167,195.833 279.5,198.5 Z"/></g>
<g><path style="opacity:0.337" fill="#fbc1bf" d="M 313.5,198.5 C 305.694,197.299 298.027,197.966 290.5,200.5C 292.667,198.489 295.334,197.322 298.5,197C 302.5,196.333 306.5,196.333 310.5,197C 311.737,197.232 312.737,197.732 313.5,198.5 Z"/></g>
<g><path style="opacity:0.025" fill="#fad2d1" d="M 173.5,197.5 C 176.012,196.133 178.345,196.466 180.5,198.5C 178.139,198.326 175.806,197.993 173.5,197.5 Z"/></g>
<g><path style="opacity:0.014" fill="#fad5d3" d="M 258.5,198.5 C 255.167,197.167 251.833,197.167 248.5,198.5C 251.833,195.833 255.167,195.833 258.5,198.5 Z"/></g>
<g><path style="opacity:0.075" fill="#f8dddc" d="M 279.5,198.5 C 281.38,198.229 282.713,198.896 283.5,200.5C 281.847,200.34 280.514,199.674 279.5,198.5 Z"/></g>
<g><path style="opacity:0.149" fill="#f7dede" d="M 180.5,198.5 C 182.027,198.427 183.027,199.094 183.5,200.5C 181.973,200.573 180.973,199.906 180.5,198.5 Z"/></g>
<g><path style="opacity:0.094" fill="#f7e8e7" d="M 316.5,199.5 C 318.38,199.229 319.713,199.896 320.5,201.5C 318.847,201.34 317.514,200.674 316.5,199.5 Z"/></g>
<g><path style="opacity:0.008" fill="#f8e2e2" d="M 183.5,200.5 C 184.935,202.401 186.602,202.734 188.5,201.5C 188.585,202.995 187.919,203.995 186.5,204.5C 184.712,203.717 183.712,202.384 183.5,200.5 Z"/></g>
<g><path style="opacity:0.325" fill="#fabfbf" d="M 226.5,199.5 C 227.11,200.391 227.443,201.391 227.5,202.5C 225.618,201.779 225.285,200.779 226.5,199.5 Z"/></g>
<g><path style="opacity:0.015" fill="#f9dfde" d="M 238.5,199.5 C 240.775,200.111 242.441,201.445 243.5,203.5C 243.103,204.525 242.437,204.692 241.5,204C 240.614,202.385 239.614,200.885 238.5,199.5 Z"/></g>
<g><path style="opacity:0.349" fill="#f9cac9" d="M 268.5,199.5 C 269.6,200.605 270.267,201.938 270.5,203.5C 268.194,202.625 267.527,201.292 268.5,199.5 Z"/></g>
<g><path style="opacity:0.008" fill="#f7e4e4" d="M 288.5,201.5 C 287.947,203.552 286.947,203.885 285.5,202.5C 286.609,202.443 287.609,202.11 288.5,201.5 Z"/></g>
<g><path style="opacity:0.337" fill="#facdcc" d="M 202.5,201.5 C 202.262,203.404 201.262,204.738 199.5,205.5C 199.738,203.596 200.738,202.262 202.5,201.5 Z"/></g>
<g><path style="opacity:0.51" fill="#ffa29e" d="M 227.5,202.5 C 228.906,202.973 229.573,203.973 229.5,205.5C 228.094,205.027 227.427,204.027 227.5,202.5 Z"/></g>
<g><path style="opacity:0.275" fill="#fbc5c3" d="M 172.5,203.5 C 173.906,203.973 174.573,204.973 174.5,206.5C 173.094,206.027 172.427,205.027 172.5,203.5 Z"/></g>
<g><path style="opacity:0.31" fill="#fcbebc" d="M 270.5,203.5 C 271.906,203.973 272.573,204.973 272.5,206.5C 271.094,206.027 270.427,205.027 270.5,203.5 Z"/></g>
<g><path style="opacity:0.224" fill="#fcc3c1" d="M 229.5,205.5 C 230.906,205.973 231.573,206.973 231.5,208.5C 230.094,208.027 229.427,207.027 229.5,205.5 Z"/></g>
<g><path style="opacity:0.029" fill="#fad9d8" d="M 258.5,198.5 C 259.478,198.811 260.145,199.478 260.5,200.5C 256.805,203.912 254.138,207.912 252.5,212.5C 252.727,208.047 254.56,204.38 258,201.5C 258.483,200.552 258.649,199.552 258.5,198.5 Z"/></g>
<g><path style="opacity:0.999" fill="#ff3b38" d="M 308.5,210.5 C 309.457,221.783 309.79,233.116 309.5,244.5C 308.833,245.833 307.833,246.833 306.5,247.5C 304.597,247.796 302.93,248.463 301.5,249.5C 299.5,249.5 297.5,249.5 295.5,249.5C 295.333,236.829 295.5,224.162 296,211.5C 296.995,210.934 297.828,210.267 298.5,209.5C 299.622,208.844 300.955,208.511 302.5,208.5C 304.883,208.361 306.883,209.028 308.5,210.5 Z"/></g>
<g><path style="opacity:0.033" fill="#f6f4f4" d="M 298.5,209.5 C 297.828,210.267 296.995,210.934 296,211.5C 295.5,224.162 295.333,236.829 295.5,249.5C 297.5,249.5 299.5,249.5 301.5,249.5C 299.401,250.612 297.067,251.279 294.5,251.5C 294.333,237.829 294.5,224.163 295,210.5C 296.011,209.663 297.178,209.33 298.5,209.5 Z"/></g>
<g><path style="opacity:0.137" fill="#f7e6e6" d="M 198.5,207.5 C 197.167,210.833 197.167,214.167 198.5,217.5C 197.035,216.594 196.035,215.261 195.5,213.5C 195.914,211.081 196.914,209.081 198.5,207.5 Z"/></g>
<g><path style="opacity:0.232" fill="#f8cecd" d="M 308.5,210.5 C 309.117,210.611 309.617,210.944 310,211.5C 310.826,222.674 310.659,233.674 309.5,244.5C 309.79,233.116 309.457,221.783 308.5,210.5 Z"/></g>
<g><path style="opacity:0.133" fill="#fbd4d2" d="M 231.5,208.5 C 233.413,211.04 233.746,213.707 232.5,216.5C 232.167,213.833 231.833,211.167 231.5,208.5 Z"/></g>
<g><path style="opacity:0.027" fill="#f9e1e0" d="M 175.5,208.5 C 176.776,210.562 177.61,212.896 178,215.5C 178.775,223.548 178.442,231.548 177,239.5C 176.626,241.491 175.793,243.158 174.5,244.5C 177.877,232.567 178.21,220.567 175.5,208.5 Z"/></g>
<g><path style="opacity:0.031" fill="#f9e2e1" d="M 273.5,208.5 C 274.776,210.562 275.61,212.896 276,215.5C 276.667,222.5 276.667,229.5 276,236.5C 275.678,239.666 274.511,242.333 272.5,244.5C 275.994,232.597 276.327,220.597 273.5,208.5 Z"/></g>
<g><path style="opacity:0.969" fill="#ff837b" d="M 142.5,215.5 C 142.59,218.152 141.924,220.485 140.5,222.5C 140.41,219.848 141.076,217.515 142.5,215.5 Z"/></g>
<g><path style="opacity:0.945" fill="#ff867d" d="M 356.5,215.5 C 357.924,217.515 358.59,219.848 358.5,222.5C 357.076,220.485 356.41,218.152 356.5,215.5 Z"/></g>
<g><path style="opacity:0.975" fill="#ff7b6f" d="M 386.5,222.5 C 390.689,242.002 390.355,261.336 385.5,280.5C 384.549,279.081 384.216,277.415 384.5,275.5C 385.298,266.849 385.965,258.182 386.5,249.5C 385.965,240.818 385.298,232.151 384.5,223.5C 384.343,222.127 384.51,220.793 385,219.5C 385.232,220.737 385.732,221.737 386.5,222.5 Z"/></g>
<g><path style="opacity:0.988" fill="#ff7366" d="M 112.5,240.5 C 112.255,256.388 113.922,272.055 117.5,287.5C 117.784,289.415 117.451,291.081 116.5,292.5C 110.609,274.594 108.609,256.261 110.5,237.5C 111.314,235.369 111.814,233.036 112,230.5C 112.498,233.817 112.665,237.15 112.5,240.5 Z"/></g>
<g><path style="opacity:0.021" fill="#f8dcdb" d="M 252.5,213.5 C 252.334,220.841 252.5,228.174 253,235.5C 253.874,239.288 255.041,242.954 256.5,246.5C 255.115,245.426 253.949,244.093 253,242.5C 250.65,232.657 250.483,222.99 252.5,213.5 Z"/></g>
<g><path style="opacity:0.035" fill="#f7eeee" d="M 231.5,290.5 C 233.493,275.911 233.993,261.244 233,246.5C 232.148,247.571 231.315,248.571 230.5,249.5C 230.167,246.5 231.5,245.167 234.5,245.5C 234.667,258.171 234.5,270.838 234,283.5C 233.61,286.104 232.776,288.438 231.5,290.5 Z"/></g>
<g><path style="opacity:0.012" fill="#f9dbda" d="M 272.5,244.5 C 272.573,246.027 271.906,247.027 270.5,247.5C 270.427,245.973 271.094,244.973 272.5,244.5 Z"/></g>
<g><path style="opacity:0.005" fill="#f8e3e3" d="M 173.5,245.5 C 173.815,247.226 173.981,248.893 174,250.5C 172.608,248.158 171.775,248.158 171.5,250.5C 170.142,248.257 170.808,246.591 173.5,245.5 Z"/></g>
<g><path style="opacity:0.022" fill="#f7e7e7" d="M 212.5,245.5 C 213.5,246.833 214.5,248.167 215.5,249.5C 214.923,250.773 214.257,250.773 213.5,249.5C 212.754,248.264 212.421,246.93 212.5,245.5 Z"/></g>
<g><path style="opacity:0.114" fill="#fad4d2" d="M 218.5,244.5 C 218.25,246.674 217.25,248.341 215.5,249.5C 215.75,247.326 216.75,245.659 218.5,244.5 Z"/></g>
<g><path style="opacity:0.059" fill="#f9dbdb" d="M 198.5,246.5 C 200.104,247.287 200.771,248.62 200.5,250.5C 199.326,249.486 198.66,248.153 198.5,246.5 Z"/></g>
<g><path style="opacity:0.022" fill="#fbd3d1" d="M 256.5,246.5 C 258.121,246.787 259.121,247.787 259.5,249.5C 257.781,251.544 256.114,253.544 254.5,255.5C 254.799,253.027 255.799,250.86 257.5,249C 257.257,248.098 256.923,247.265 256.5,246.5 Z"/></g>
<g><path style="opacity:0.012" fill="#f6efef" d="M 306.5,247.5 C 305.365,249.213 303.698,249.88 301.5,249.5C 302.93,248.463 304.597,247.796 306.5,247.5 Z"/></g>
<g><path style="opacity:0.286" fill="#f8d6d6" d="M 269.5,248.5 C 270.11,249.391 270.443,250.391 270.5,251.5C 268.618,250.779 268.285,249.779 269.5,248.5 Z"/></g>
<g><path style="opacity:0.196" fill="#f7e4e3" d="M 230.5,249.5 C 230.34,251.153 229.674,252.486 228.5,253.5C 228.229,251.62 228.896,250.287 230.5,249.5 Z"/></g>
<g><path style="opacity:0.796" fill="#ffaba6" d="M 171.5,250.5 C 173.262,251.262 174.262,252.596 174.5,254.5C 172.738,253.738 171.738,252.404 171.5,250.5 Z"/></g>
<g><path style="opacity:0.025" fill="#f8e0df" d="M 325.5,205.5 C 327.136,206.749 328.303,208.416 329,210.5C 330.054,215.668 331.888,220.501 334.5,225C 331.315,231.892 328.815,239.059 327,246.5C 323.983,251.917 319.483,255.25 313.5,256.5C 323.97,251.159 329.47,242.492 330,230.5C 330.792,228.413 331.959,226.579 333.5,225C 331.951,223.786 330.785,222.286 330,220.5C 329.188,215.255 327.688,210.255 325.5,205.5 Z"/></g>
<g><path style="opacity:0.212" fill="#facac8" d="M 200.5,250.5 C 201.906,250.973 202.573,251.973 202.5,253.5C 201.094,253.027 200.427,252.027 200.5,250.5 Z"/></g>
<g><path style="opacity:0.565" fill="#ffada9" d="M 270.5,251.5 C 272.262,252.262 273.262,253.596 273.5,255.5C 271.738,254.738 270.738,253.404 270.5,251.5 Z"/></g>
<g><path style="opacity:0.022" fill="#f7e7e7" d="M 174.5,254.5 C 176.104,255.287 176.771,256.62 176.5,258.5C 175.326,257.486 174.66,256.153 174.5,254.5 Z"/></g>
<g><path style="opacity:0.024" fill="#f8e3e3" d="M 228.5,253.5 C 227.674,256.485 226.341,259.151 224.5,261.5C 224.794,258.246 226.127,255.579 228.5,253.5 Z"/></g>
<g><path style="opacity:0.022" fill="#f6ecec" d="M 254.5,255.5 C 254.125,257.698 253.458,259.698 252.5,261.5C 252.054,258.99 252.72,256.99 254.5,255.5 Z"/></g>
<g><path style="opacity:0.026" fill="#fcd7d4" d="M 313.5,256.5 C 313.038,257.88 312.038,258.547 310.5,258.5C 307.551,259.302 304.551,259.636 301.5,259.5C 305.313,258.213 309.313,257.213 313.5,256.5 Z"/></g>
<g><path style="opacity:0.034" fill="#f7eaea" d="M 300.5,259.5 C 299.081,260.451 297.415,260.784 295.5,260.5C 294.559,271.838 295.893,282.838 299.5,293.5C 296.759,290.466 295.259,286.799 295,282.5C 294.5,274.841 294.334,267.174 294.5,259.5C 296.5,259.5 298.5,259.5 300.5,259.5 Z"/></g>
<g><path style="opacity:0.804" fill="#ffc4c0" d="M 204.5,257.5 C 207.301,261.914 207.968,266.58 206.5,271.5C 206.462,266.729 205.796,262.062 204.5,257.5 Z"/></g>
<g><path style="opacity:0.357" fill="#fac7c6" d="M 273.5,255.5 C 275.04,257.838 275.706,260.505 275.5,263.5C 274.232,261.095 273.565,258.428 273.5,255.5 Z"/></g>
<g><path style="opacity:0.44" fill="#fac8c7" d="M 198.5,246.5 C 197.883,246.389 197.383,246.056 197,245.5C 196.333,258.833 196.333,272.167 197,285.5C 197.813,287.436 198.313,289.436 198.5,291.5C 197.883,291.389 197.383,291.056 197,290.5C 196.055,286.886 195.388,283.219 195,279.5C 194.333,267.833 194.333,256.167 195,244.5C 197.149,243.16 198.316,243.827 198.5,246.5 Z"/></g>
<g><path style="opacity:0.32" fill="#f8d7d7" d="M 224.5,261.5 C 223.329,265.518 223.329,269.518 224.5,273.5C 223.829,274.946 222.662,275.612 221,275.5C 219.93,275.472 219.097,275.139 218.5,274.5C 219.833,274.5 221.167,274.5 222.5,274.5C 222.335,270.818 222.501,267.152 223,263.5C 223.278,262.584 223.778,261.918 224.5,261.5 Z"/></g>
<g><path style="opacity:0.791" fill="#ffa9a4" d="M 176.5,259.5 C 177.979,263.909 178.646,268.576 178.5,273.5C 178.646,278.424 177.979,283.091 176.5,287.5C 176.5,278.167 176.5,268.833 176.5,259.5 Z"/></g>
<g><path style="opacity:0.037" fill="#f8e3e3" d="M 216.5,272.5 C 214.495,271.876 212.828,272.71 211.5,275C 209.527,275.495 207.527,275.662 205.5,275.5C 205.232,273.901 205.566,272.568 206.5,271.5C 206.5,272.5 206.5,273.5 206.5,274.5C 207.873,274.657 209.207,274.49 210.5,274C 211.725,272.437 213.225,271.27 215,270.5C 216.03,270.836 216.53,271.503 216.5,272.5 Z"/></g>
<g><path style="opacity:0.09" fill="#f8dcdc" d="M 176.5,287.5 C 176.539,290.089 175.539,292.089 173.5,293.5C 173.992,291.181 174.992,289.181 176.5,287.5 Z"/></g>
<g><path style="opacity:0.012" fill="#f9dddc" d="M 198.5,291.5 C 199.906,291.973 200.573,292.973 200.5,294.5C 199.094,294.027 198.427,293.027 198.5,291.5 Z"/></g>
<g><path style="opacity:0.004" fill="#f8e0e0" d="M 252.5,262.5 C 252.334,269.841 252.5,277.174 253,284.5C 253.895,287.951 255.062,291.284 256.5,294.5C 253.972,292.11 252.472,289.11 252,285.5C 251.178,277.655 251.344,269.989 252.5,262.5 Z"/></g>
<g><path style="opacity:0.063" fill="#f8dfde" d="M 274.5,286.5 C 274.498,290.165 273.165,293.165 270.5,295.5C 271.597,292.314 272.93,289.314 274.5,286.5 Z"/></g>
<g><path style="opacity:0.022" fill="#f7e5e5" d="M 244.5,295.5 C 243.883,295.389 243.383,295.056 243,294.5C 239.791,300.865 234.957,302.865 228.5,300.5C 230.857,300.663 233.19,300.497 235.5,300C 238.358,298.135 240.858,295.968 243,293.5C 244.03,293.836 244.53,294.503 244.5,295.5 Z"/></g>
<g><path style="opacity:0.024" fill="#f8e3e3" d="M 286.5,295.5 C 285.883,295.389 285.383,295.056 285,294.5C 281.791,300.865 276.957,302.865 270.5,300.5C 272.857,300.663 275.19,300.497 277.5,300C 280.113,297.912 282.613,295.746 285,293.5C 286.03,293.836 286.53,294.503 286.5,295.5 Z"/></g>
<g><path style="opacity:0.008" fill="#f9dcdc" d="M 173.5,293.5 C 173.573,295.027 172.906,296.027 171.5,296.5C 171.427,294.973 172.094,293.973 173.5,293.5 Z"/></g>
<g><path style="opacity:0.004" fill="#f8e1e0" d="M 299.5,293.5 C 300.906,293.973 301.573,294.973 301.5,296.5C 300.094,296.027 299.427,295.027 299.5,293.5 Z"/></g>
<g><path style="opacity:0.008" fill="#f8e1e1" d="M 200.5,294.5 C 203.192,295.591 203.858,297.257 202.5,299.5C 201.833,297.833 201.167,296.167 200.5,294.5 Z"/></g>
<g><path style="opacity:0.122" fill="#f8e1e1" d="M 188.5,296.5 C 187.85,296.196 187.183,295.863 186.5,295.5C 184.31,297.524 181.977,299.357 179.5,301C 176.833,301.667 174.167,301.667 171.5,301C 170.944,300.617 170.611,300.117 170.5,299.5C 173.113,300.435 175.779,300.602 178.5,300C 181.312,298.023 183.978,295.856 186.5,293.5C 187.919,294.005 188.585,295.005 188.5,296.5 Z"/></g>
<g><path style="opacity:0.439" fill="#fbcccb" d="M 244.5,295.5 C 246.167,296.5 247.5,297.833 248.5,299.5C 246.167,299.167 244.833,297.833 244.5,295.5 Z"/></g>
<g><path style="opacity:0.686" fill="#ffb5b0" d="M 286.5,295.5 C 287.833,296.167 288.833,297.167 289.5,298.5C 287.5,298.5 286.5,297.5 286.5,295.5 Z"/></g>
<g><path style="opacity:0.31" fill="#fbc6c4" d="M 301.5,296.5 C 302.497,296.47 303.164,296.97 303.5,298C 303.252,299.749 302.252,300.582 300.5,300.5C 302.138,299.295 302.471,297.962 301.5,296.5 Z"/></g>
<g><path style="opacity:0.318" fill="#f9cccb" d="M 226.5,297.5 C 227.167,298.5 227.833,299.5 228.5,300.5C 225.949,300.332 225.282,299.332 226.5,297.5 Z"/></g>
<g><path style="opacity:0.361" fill="#fbc4c3" d="M 268.5,297.5 C 269.167,298.5 269.833,299.5 270.5,300.5C 267.949,300.332 267.282,299.332 268.5,297.5 Z"/></g>
<g><path style="opacity:0.034" fill="#f7ebeb" d="M 202.5,299.5 C 202.389,300.117 202.056,300.617 201.5,301C 198.633,301.801 195.966,301.634 193.5,300.5C 196.57,300.632 199.57,300.299 202.5,299.5 Z"/></g>
<g><path style="opacity:0.028" fill="#f8e5e4" d="M 257.5,295.5 C 260.066,297.288 260.066,299.121 257.5,301C 254.833,301.667 252.167,301.667 249.5,301C 248.944,300.617 248.611,300.117 248.5,299.5C 252.071,301.125 255.404,300.791 258.5,298.5C 257.873,297.583 257.539,296.583 257.5,295.5 Z"/></g>
<g><path style="opacity:0.431" fill="#ffb2af" d="M 180.5,338.5 C 182.027,338.427 183.027,339.094 183.5,340.5C 181.973,340.573 180.973,339.906 180.5,338.5 Z"/></g>
<g><path style="opacity:0.518" fill="#ffa7a3" d="M 183.5,340.5 C 185.027,340.427 186.027,341.094 186.5,342.5C 184.973,342.573 183.973,341.906 183.5,340.5 Z"/></g>
<g><path style="opacity:0.498" fill="#ffa8a4" d="M 186.5,342.5 C 188.027,342.427 189.027,343.094 189.5,344.5C 187.973,344.573 186.973,343.906 186.5,342.5 Z"/></g>
<g><path style="opacity:0.4" fill="#ffb1ad" d="M 189.5,344.5 C 191.027,344.427 192.027,345.094 192.5,346.5C 190.973,346.573 189.973,345.906 189.5,344.5 Z"/></g>
<g><path style="opacity:0.999" fill="#ff766b" d="M 117.5,287.5 C 134.988,339.32 170.321,371.654 223.5,384.5C 221.901,384.232 220.568,384.566 219.5,385.5C 173.752,374.859 140.919,348.192 121,305.5C 119.197,301.256 117.697,296.922 116.5,292.5C 117.451,291.081 117.784,289.415 117.5,287.5 Z"/></g>
<g><path style="opacity:1" fill="#ff766b" d="M 384.5,275.5 C 384.216,277.415 384.549,279.081 385.5,280.5C 374.576,324.847 348.576,357.014 307.5,377C 296.983,381.895 285.983,385.062 274.5,386.5C 272.735,385.539 270.735,385.205 268.5,385.5C 330.185,373.15 368.851,336.483 384.5,275.5 Z"/></g>
<g><path style="opacity:0.999" fill="#ff7569" d="M 223.5,384.5 C 238.46,386.619 253.46,386.953 268.5,385.5C 270.735,385.205 272.735,385.539 274.5,386.5C 256.095,390.663 237.762,390.33 219.5,385.5C 220.568,384.566 221.901,384.232 223.5,384.5 Z"/></g>
</svg>
