<?xml version="1.0" encoding="UTF-8"?>
<!DOCTYPE svg PUBLIC "-//W3C//DTD SVG 1.1//EN" "http://www.w3.org/Graphics/SVG/1.1/DTD/svg11.dtd">
<svg xmlns="http://www.w3.org/2000/svg" version="1.1" width="500px" height="500px" style="shape-rendering:geometricPrecision; text-rendering:geometricPrecision; image-rendering:optimizeQuality; fill-rule:evenodd; clip-rule:evenodd" xmlns:xlink="http://www.w3.org/1999/xlink">
<g><path style="opacity:0.998" fill="#fe3131" d="M 253.5,272.5 C 252.5,272.5 251.5,272.5 250.5,272.5C 250.5,273.833 250.5,275.167 250.5,276.5C 249.209,276.263 248.209,276.596 247.5,277.5C 199.916,271.765 152.249,266.598 104.5,262C 97.5871,261.072 90.7537,259.905 84,258.5C 89.1354,202.447 94.9688,146.447 101.5,90.5C 157.793,96.2034 213.96,102.537 270,109.5C 264.644,163.781 259.144,218.115 253.5,272.5 Z"/></g>
<g><path style="opacity:0.998" fill="#fe3030" d="M 253.5,272.5 C 252.766,273.708 252.433,275.041 252.5,276.5C 307.92,281.584 363.253,287.251 418.5,293.5C 415.834,320.155 413.167,346.822 410.5,373.5C 409.223,374.694 408.556,376.36 408.5,378.5C 407.239,389.848 405.906,401.181 404.5,412.5C 404.747,413.713 405.414,414.38 406.5,414.5C 405.85,416.435 405.517,418.435 405.5,420.5C 404.235,421.514 403.569,423.014 403.5,425C 402.626,432.162 401.792,439.329 401,446.5C 400.192,450.027 400.359,453.36 401.5,456.5C 401.768,458.099 401.434,459.432 400.5,460.5C 399.955,456.828 399.622,457.162 399.5,461.5C 358.197,456.874 316.864,452.54 275.5,448.5C 275.167,448.5 274.833,448.5 274.5,448.5C 264.512,446.924 254.345,445.591 244,444.5C 242.293,444.508 240.793,444.842 239.5,445.5C 238.167,445.5 236.833,445.5 235.5,445.5C 236.263,444.732 237.263,444.232 238.5,444C 236.5,443.667 234.5,443.333 232.5,443C 233.435,440.619 233.768,438.119 233.5,435.5C 237.872,383.737 243.206,332.07 249.5,280.5C 249.36,278.97 248.693,277.97 247.5,277.5C 248.209,276.596 249.209,276.263 250.5,276.5C 250.5,275.167 250.5,273.833 250.5,272.5C 251.5,272.5 252.5,272.5 253.5,272.5 Z"/></g>
<g><path style="opacity:0.23" fill="#ff3f3e" d="M 410.5,373.5 C 408.81,387.084 407.477,400.751 406.5,414.5C 405.414,414.38 404.747,413.713 404.5,412.5C 405.906,401.181 407.239,389.848 408.5,378.5C 408.556,376.36 409.223,374.694 410.5,373.5 Z"/></g>
<g><path style="opacity:0.222" fill="#ff4646" d="M 405.5,420.5 C 404.109,432.455 402.776,444.455 401.5,456.5C 400.359,453.36 400.192,450.027 401,446.5C 401.792,439.329 402.626,432.162 403.5,425C 403.569,423.014 404.235,421.514 405.5,420.5 Z"/></g>
<g><path style="opacity:0.742" fill="#ff4948" d="M 233.5,435.5 C 233.768,438.119 233.435,440.619 232.5,443C 234.5,443.333 236.5,443.667 238.5,444C 237.263,444.232 236.263,444.732 235.5,445.5C 232.864,445.509 231.531,444.175 231.5,441.5C 231.599,439.201 232.266,437.201 233.5,435.5 Z"/></g>
<g><path style="opacity:0.375" fill="#ff4545" d="M 239.5,445.5 C 240.793,444.842 242.293,444.508 244,444.5C 254.345,445.591 264.512,446.924 274.5,448.5C 262.789,447.962 251.122,446.962 239.5,445.5 Z"/></g>
<g><path style="opacity:0.287" fill="#ff4645" d="M 275.5,448.5 C 316.864,452.54 358.197,456.874 399.5,461.5C 399.622,457.162 399.955,456.828 400.5,460.5C 399.486,461.765 397.986,462.431 396,462.5C 355.595,458.512 315.428,453.845 275.5,448.5 Z"/></g>
</svg>
